<svg width="304" height="59" viewBox="0 0 304 59" fill="none" xmlns="http://www.w3.org/2000/svg">
<rect x="8.32617" y="51.5889" width="294.343" height="0.227478" fill="white" fill-opacity="0.6"/>
<rect x="8.35938" y="36.7793" width="294.343" height="0.227482" fill="white" fill-opacity="0.6"/>
<rect x="8.35938" y="21.9932" width="294.343" height="0.227482" fill="white" fill-opacity="0.6"/>
<rect x="8.35938" y="7.20703" width="294.343" height="0.227483" fill="white" fill-opacity="0.6"/>
<rect x="8.13308" y="7.28151" width="0.148967" height="46.2575" stroke="white" stroke-opacity="0.6" stroke-width="0.148967" stroke-dasharray="4 4"/>
<rect x="302.776" y="7.28152" width="0.148972" height="46.2575" stroke="white" stroke-opacity="0.6" stroke-width="0.148972" stroke-dasharray="4 4"/>
<rect x="50.1523" y="7.20703" width="0.297939" height="46.4064" fill="white" fill-opacity="0.38"/>
<rect x="92.2441" y="7.20703" width="0.297928" height="46.4064" fill="white" fill-opacity="0.38"/>
<rect x="134.336" y="7.20703" width="0.297928" height="46.4064" fill="white" fill-opacity="0.38"/>
<rect x="176.426" y="7.20703" width="0.297943" height="46.4064" fill="white" fill-opacity="0.38"/>
<rect x="218.518" y="7.20703" width="0.297913" height="46.4064" fill="white" fill-opacity="0.38"/>
<rect x="260.609" y="7.20703" width="0.297943" height="46.4064" fill="white" fill-opacity="0.38"/>
<path d="M8.24023 51.7205L49.9692 37.1261L92.6284 22.1373H134.49L176.485 7.67445L218.48 22.1373L260.74 51.7205L303.001 7.54297" stroke="#00C7B1" stroke-linecap="round" stroke-linejoin="round"/>
<path d="M9.03598 51.7199C9.03598 52.083 8.73848 52.3773 8.37151 52.3773C8.00453 52.3773 7.70703 52.083 7.70703 51.7199C7.70703 51.3568 8.00453 51.0625 8.37151 51.0625C8.73848 51.0625 9.03598 51.3568 9.03598 51.7199Z" fill="#5388D8"/>
<path d="M51.0321 36.9943C51.0321 37.3574 50.7346 37.6517 50.3676 37.6517C50.0006 37.6517 49.7031 37.3574 49.7031 36.9943C49.7031 36.6312 50.0006 36.3369 50.3676 36.3369C50.7346 36.3369 51.0321 36.6312 51.0321 36.9943Z" fill="#5388D8"/>
<path d="M93.0262 22.2687C93.0262 22.6318 92.7287 22.9261 92.3617 22.9261C91.9948 22.9261 91.6973 22.6318 91.6973 22.2687C91.6973 21.9057 91.9948 21.6113 92.3617 21.6113C92.7287 21.6113 93.0262 21.9057 93.0262 22.2687Z" fill="#5388D8"/>
<path d="M135.153 22.006C135.153 22.3691 134.856 22.6634 134.489 22.6634C134.122 22.6634 133.824 22.3691 133.824 22.006C133.824 21.643 134.122 21.3486 134.489 21.3486C134.856 21.3486 135.153 21.643 135.153 22.006Z" fill="#5388D8"/>
<path d="M177.282 7.54315C177.282 7.90622 176.985 8.20055 176.618 8.20055C176.251 8.20055 175.953 7.90622 175.953 7.54315C175.953 7.18007 176.251 6.88574 176.618 6.88574C176.985 6.88574 177.282 7.18007 177.282 7.54315Z" fill="#5388D8"/>
<path d="M219.276 22.2687C219.276 22.6318 218.979 22.9261 218.612 22.9261C218.245 22.9261 217.947 22.6318 217.947 22.2687C217.947 21.9057 218.245 21.6113 218.612 21.6113C218.979 21.6113 219.276 21.9057 219.276 22.2687Z" fill="#5388D8"/>
<path d="M261.536 51.7199C261.536 52.083 261.238 52.3773 260.872 52.3773C260.505 52.3773 260.207 52.083 260.207 51.7199C260.207 51.3568 260.505 51.0625 260.872 51.0625C261.238 51.0625 261.536 51.3568 261.536 51.7199Z" fill="#5388D8"/>
</svg>
