<svg width="14" height="12" viewBox="0 0 14 12" fill="none" xmlns="http://www.w3.org/2000/svg">
<path d="M14 5.99958C13.9951 5.47348 13.7832 4.97048 13.41 4.59958L9.12 0.299582C8.93264 0.113331 8.67919 0.00878906 8.415 0.00878906C8.15081 0.00878906 7.89736 0.113331 7.71 0.299582C7.61627 0.392545 7.54188 0.503146 7.49111 0.625005C7.44034 0.746864 7.4142 0.87757 7.4142 1.00958C7.4142 1.14159 7.44034 1.2723 7.49111 1.39416C7.54188 1.51602 7.61627 1.62662 7.71 1.71958L11 4.99958H1C0.734784 4.99958 0.48043 5.10494 0.292893 5.29248C0.105357 5.48001 0 5.73437 0 5.99958C0 6.2648 0.105357 6.51915 0.292893 6.70669C0.48043 6.89422 0.734784 6.99958 1 6.99958H11L7.71 10.2896C7.5217 10.4766 7.41538 10.7307 7.41444 10.996C7.41351 11.2614 7.51802 11.5163 7.705 11.7046C7.89198 11.8929 8.1461 11.9992 8.41146 12.0001C8.67683 12.0011 8.9317 11.8966 9.12 11.7096L13.41 7.40958C13.7856 7.03623 13.9978 6.52916 14 5.99958Z" fill="white"/>
</svg>
