<svg width="24" height="24" viewBox="0 0 24 24" fill="none" xmlns="http://www.w3.org/2000/svg">
<g opacity="0.5">
<path d="M21.896 7.37086C21.341 7.96886 19.807 9.54786 17.577 11.2679C15.239 13.0719 12.591 14.5259 12.479 14.5869C12.33 14.6689 12.165 14.7099 12 14.7099C11.835 14.7099 11.67 14.6689 11.52 14.5869C11.409 14.5259 8.761 13.0719 6.422 11.2679C4.192 9.54786 2.658 7.96886 2.102 7.36986L1.513 6.73986C1.244 8.12686 1 9.95086 1 12.0009C1 16.4589 2.156 19.8529 2.206 19.9949C2.318 20.3189 2.589 20.5629 2.923 20.6409C3.101 20.6829 7.343 21.6639 12.001 21.6639C16.82 21.6639 20.915 20.6809 21.087 20.6389C21.417 20.5589 21.683 20.3169 21.795 19.9959C21.844 19.8549 23.001 16.4859 23.001 11.9999C23.001 9.93286 22.759 8.11386 22.492 6.73486L21.898 7.37086H21.896Z" fill="white"/>
<path d="M3.56617 6.00691C3.97517 6.44691 5.47317 8.00891 7.64417 9.68291C9.29017 10.9529 11.1442 12.0649 12.0002 12.5589C12.8562 12.0639 14.7142 10.9509 16.3552 9.68391C18.5272 8.00991 20.0242 6.44791 20.4312 6.00891L21.9242 4.41191C21.8502 4.16891 21.8012 4.02691 21.7922 4.00091C21.6802 3.68191 21.4142 3.44191 21.0862 3.36191C20.9142 3.31991 16.8292 2.33691 11.9992 2.33691C7.25517 2.33691 3.09217 3.31891 2.91717 3.36091C2.58417 3.44091 2.31617 3.68391 2.20517 4.00691C2.19617 4.03391 2.14817 4.17391 2.07617 4.41391L3.56617 6.00891V6.00691Z" fill="white"/>
</g>
</svg>
