<svg width="16" height="24" viewBox="0 0 16 24" fill="none" xmlns="http://www.w3.org/2000/svg">
<path d="M11.6 0.0361328L10.894 1.44713C10.8109 1.61337 10.6832 1.75316 10.5251 1.85084C10.367 1.94852 10.1848 2.00022 9.999 2.00013H5.999C5.62 2.00013 5.274 1.78613 5.104 1.44713L4.4 0.0361328C3.18724 0.184248 2.07048 0.770682 1.26006 1.68498C0.449636 2.59929 0.00148137 3.77836 0 5.00013V19.0001C0 21.7571 2.243 24.0001 5 24.0001H11C13.757 24.0001 16 21.7571 16 19.0001V5.00013C15.9983 3.77842 15.5501 2.59946 14.7397 1.68521C13.9293 0.770949 12.8127 0.184455 11.6 0.0361328ZM9 21.0001H7C6.73478 21.0001 6.48043 20.8948 6.29289 20.7072C6.10536 20.5197 6 20.2654 6 20.0001C6 19.7349 6.10536 19.4806 6.29289 19.293C6.48043 19.1055 6.73478 19.0001 7 19.0001H9C9.26522 19.0001 9.51957 19.1055 9.70711 19.293C9.89464 19.4806 10 19.7349 10 20.0001C10 20.2654 9.89464 20.5197 9.70711 20.7072C9.51957 20.8948 9.26522 21.0001 9 21.0001Z" fill="white"/>
</svg>
