<svg width="23" height="23" viewBox="0 0 23 23" fill="none" xmlns="http://www.w3.org/2000/svg">
<rect width="23" height="23" rx="11.5" fill="url(#paint0_linear_1250_4062)"/>
<path d="M19 11.5C19 15.6421 15.6421 19 11.5 19C7.35786 19 4 15.6421 4 11.5C4 7.35786 7.35786 4 11.5 4C15.6421 4 19 7.35786 19 11.5ZM7.375 11.5C7.375 13.7782 9.22183 15.625 11.5 15.625C13.7782 15.625 15.625 13.7782 15.625 11.5C15.625 9.22183 13.7782 7.375 11.5 7.375C9.22183 7.375 7.375 9.22183 7.375 11.5Z" fill="white"/>
<defs>
<linearGradient id="paint0_linear_1250_4062" x1="11.5" y1="0" x2="11.5" y2="23" gradientUnits="userSpaceOnUse">
<stop stop-color="#2BFFFF"/>
<stop offset="1" stop-color="#2BFFFF" stop-opacity="0.41"/>
</linearGradient>
</defs>
</svg>
