<svg width="24" height="24" viewBox="0 0 24 24" fill="none" xmlns="http://www.w3.org/2000/svg">
<path d="M11.994 1C4.929 1.044 1 5.027 1 11.982C1 18.937 4.933 22.959 12.006 23C19.168 22.958 22.867 19.263 23 11.983C22.878 4.946 18.974 1.045 11.994 1ZM14.825 13H13.001V14.825C13.001 15.0902 12.8956 15.3446 12.7081 15.5321C12.5206 15.7196 12.2662 15.825 12.001 15.825C11.7358 15.825 11.4814 15.7196 11.2939 15.5321C11.1064 15.3446 11.001 15.0902 11.001 14.825V13H9.177C8.91178 13 8.65743 12.8946 8.46989 12.7071C8.28236 12.5196 8.177 12.2652 8.177 12C8.177 11.7348 8.28236 11.4804 8.46989 11.2929C8.65743 11.1054 8.91178 11 9.177 11H11.001V9.175C11.001 8.90978 11.1064 8.65543 11.2939 8.46789C11.4814 8.28036 11.7358 8.175 12.001 8.175C12.2662 8.175 12.5206 8.28036 12.7081 8.46789C12.8956 8.65543 13.001 8.90978 13.001 9.175V11H14.825C15.0902 11 15.3446 11.1054 15.5321 11.2929C15.7196 11.4804 15.825 11.7348 15.825 12C15.825 12.2652 15.7196 12.5196 15.5321 12.7071C15.3446 12.8946 15.0902 13 14.825 13Z" fill="white"/>
</svg>
