<svg width="24" height="24" viewBox="0 0 24 24" fill="none" xmlns="http://www.w3.org/2000/svg">
<path d="M12 1C4.29 1 1 4.29 1 12C1 19.71 4.29 23 12 23C19.71 23 23 19.71 23 12C23 4.29 19.71 1 12 1ZM17.305 9.539C15.993 11.592 14.125 14.165 11.304 15.858C11.1451 15.9536 10.9626 16.0031 10.7772 16.0008C10.5917 15.9985 10.4105 15.9445 10.254 15.845C8.734 14.882 7.593 13.85 6.66 12.597C6.5124 12.3839 6.45333 12.1218 6.49526 11.8659C6.53719 11.6101 6.67683 11.3805 6.88474 11.2257C7.09265 11.0708 7.35258 11.0027 7.6097 11.0358C7.86683 11.0689 8.10106 11.2006 8.263 11.403C8.937 12.308 9.751 13.082 10.799 13.808C12.959 12.348 14.443 10.301 15.618 8.462C15.6887 8.3513 15.7805 8.2556 15.8882 8.18039C15.9959 8.10517 16.1174 8.05191 16.2457 8.02363C16.374 7.99536 16.5066 7.99263 16.6359 8.01559C16.7652 8.03856 16.8888 8.08678 16.9995 8.1575C17.1102 8.22822 17.2059 8.32005 17.2811 8.42774C17.3563 8.53544 17.4096 8.6569 17.4379 8.78519C17.4661 8.91347 17.4689 9.04607 17.4459 9.17541C17.4229 9.30475 17.3757 9.4283 17.305 9.539Z" fill="#00C7B1"/>
</svg>
