<svg width="33" height="12" viewBox="0 0 33 12" fill="none" xmlns="http://www.w3.org/2000/svg">
<path d="M21.4941 0.5C19.151 0.5 17.057 1.74944 17.057 4.05789C17.057 6.70524 20.7707 6.88809 20.7707 8.21804C20.7707 8.77803 20.1469 9.27931 19.0815 9.27931C17.5695 9.27931 16.4394 8.57887 16.4394 8.57887L15.9558 10.9083C15.9558 10.9083 17.2577 11.5 18.9861 11.5C21.5479 11.5 23.5637 10.1892 23.5637 7.84129C23.5637 5.04389 19.8346 4.86647 19.8346 3.63206C19.8346 3.19339 20.3466 2.71274 21.409 2.71274C22.6077 2.71274 23.5856 3.22214 23.5856 3.22214L24.0588 0.972263C24.0588 0.972263 22.9947 0.5 21.4941 0.5V0.5ZM0.0567365 0.669803L0 1.00941C0 1.00941 0.985758 1.19501 1.87359 1.56524C3.01676 1.98979 3.09819 2.23694 3.29072 3.00458L5.38868 11.3249H8.201L12.5336 0.669803H9.72773L6.94377 7.91426L5.80775 1.77352C5.70357 1.07071 5.17585 0.669803 4.52989 0.669803H0.0567365V0.669803ZM13.6619 0.669803L11.4608 11.3249H14.1364L16.3298 0.669803H13.6619V0.669803ZM28.5849 0.669803C27.9397 0.669803 27.5978 1.02517 27.347 1.64617L23.427 11.3249H26.2329L26.7758 9.71177H30.1941L30.5242 11.3249H33L30.8401 0.669803H28.5849V0.669803ZM28.9498 3.54848L29.7815 7.54679H27.5533L28.9498 3.54848V3.54848Z" fill="#1434CB"/>
</svg>
