<svg width="29" height="29" viewBox="0 0 29 29" fill="none" xmlns="http://www.w3.org/2000/svg">
<path d="M14.1844 7.57666C18.1219 7.57666 21.3719 10.8267 21.3719 14.7642C21.3719 18.7642 18.1219 21.9517 14.1844 21.9517C10.1844 21.9517 6.99688 18.7642 6.99688 14.7642C6.99688 10.8267 10.1844 7.57666 14.1844 7.57666ZM14.1844 19.4517C16.7469 19.4517 18.8094 17.3892 18.8094 14.7642C18.8094 12.2017 16.7469 10.1392 14.1844 10.1392C11.5594 10.1392 9.49688 12.2017 9.49688 14.7642C9.49688 17.3892 11.6219 19.4517 14.1844 19.4517ZM23.3094 7.32666C23.3094 8.26416 22.5594 9.01416 21.6219 9.01416C20.6844 9.01416 19.9344 8.26416 19.9344 7.32666C19.9344 6.38916 20.6844 5.63916 21.6219 5.63916C22.5594 5.63916 23.3094 6.38916 23.3094 7.32666ZM28.0594 9.01416C28.1844 11.3267 28.1844 18.2642 28.0594 20.5767C27.9344 22.8267 27.4344 24.7642 25.8094 26.4517C24.1844 28.0767 22.1844 28.5767 19.9344 28.7017C17.6219 28.8267 10.6844 28.8267 8.37188 28.7017C6.12188 28.5767 4.18438 28.0767 2.49688 26.4517C0.871876 24.7642 0.371876 22.8267 0.246876 20.5767C0.121876 18.2642 0.121876 11.3267 0.246876 9.01416C0.371876 6.76416 0.871876 4.76416 2.49688 3.13916C4.18438 1.51416 6.12188 1.01416 8.37188 0.88916C10.6844 0.76416 17.6219 0.76416 19.9344 0.88916C22.1844 1.01416 24.1844 1.51416 25.8094 3.13916C27.4344 4.76416 27.9344 6.76416 28.0594 9.01416ZM25.0594 23.0142C25.8094 21.2017 25.6219 16.8267 25.6219 14.7642C25.6219 12.7642 25.8094 8.38916 25.0594 6.51416C24.5594 5.32666 23.6219 4.32666 22.4344 3.88916C20.5594 3.13916 16.1844 3.32666 14.1844 3.32666C12.1219 3.32666 7.74688 3.13916 5.93438 3.88916C4.68438 4.38916 3.74688 5.32666 3.24688 6.51416C2.49688 8.38916 2.68438 12.7642 2.68438 14.7642C2.68438 16.8267 2.49688 21.2017 3.24688 23.0142C3.74688 24.2642 4.68438 25.2017 5.93438 25.7017C7.74688 26.4517 12.1219 26.2642 14.1844 26.2642C16.1844 26.2642 20.5594 26.4517 22.4344 25.7017C23.6219 25.2017 24.6219 24.2642 25.0594 23.0142Z" fill="white"/>
</svg>
