<svg width="32" height="32" viewBox="0 0 32 32" fill="none" xmlns="http://www.w3.org/2000/svg">
<path d="M16.1938 0.26416C24.7563 0.26416 31.6938 7.20166 31.6938 15.7642C31.6938 24.3267 24.7563 31.2642 16.1938 31.2642C7.63125 31.2642 0.69375 24.3267 0.69375 15.7642C0.69375 7.20166 7.63125 0.26416 16.1938 0.26416ZM26.7563 21.4517C26.8813 21.1392 26.6938 20.8892 26.4438 20.8267C23.5688 20.3267 22.2563 17.3267 22.1938 17.2017C22.0688 16.8892 22.0063 16.6392 22.0688 16.4517C22.2563 16.0142 22.8813 15.8267 23.2563 15.7017C23.3813 15.7017 23.5063 15.6392 23.5688 15.5767C24.3188 15.3267 24.6938 14.9517 24.6313 14.5767C24.6313 14.2642 24.3813 13.9517 24.0063 13.8267C23.7563 13.7017 23.3813 13.7017 23.1313 13.8267C22.8188 14.0142 22.5063 14.0767 22.2563 14.0767C22.0688 14.0767 21.9438 14.0142 21.8813 14.0142C21.9438 12.5142 22.1938 10.3892 21.6313 9.20166C20.6313 6.88916 18.5688 5.76416 16.3813 5.76416C16.3188 5.76416 16.0063 5.76416 15.9438 5.76416C15.0688 5.76416 12.1313 6.01416 10.6938 9.20166C10.1938 10.3892 10.3813 12.5142 10.4438 14.0142C10.3813 14.0142 10.2563 14.0767 10.0688 14.0767C9.75625 14.0767 9.44375 14.0142 9.06875 13.8267C8.63125 13.6392 7.81875 13.9517 7.69375 14.4517C7.63125 14.7642 7.75625 15.2017 8.75625 15.6392C9.13125 15.7642 10.0688 15.9517 10.2563 16.4517C10.3813 16.6392 10.3188 16.8892 10.1938 17.2017C10.1313 17.2017 10.1313 17.2642 10.1313 17.2642C10.0688 17.3892 8.81875 20.3267 5.88125 20.8267C5.69375 20.8267 5.50625 21.0767 5.50625 21.2642C5.56875 22.1392 7.50625 22.4517 8.38125 22.6392C8.44375 22.7017 8.50625 23.2017 8.63125 23.6392C8.69375 23.7642 8.81875 24.0142 9.19375 24.0142C9.50625 24.0142 10.0063 23.7642 10.7563 23.7642C11.8813 23.7642 12.2563 24.0142 13.1313 24.6392C13.7563 25.0767 14.8188 25.8892 16.1313 25.7642C17.4438 25.8267 18.3188 25.2642 19.1938 24.6392C20.0688 24.0142 20.4438 23.7642 21.5688 23.7642C22.3813 23.7642 22.7563 23.9517 23.1938 23.9517C23.4438 23.9517 23.6313 23.8267 23.6938 23.5767C23.8188 23.2017 23.8813 22.7017 23.9438 22.6392C25.6313 22.3267 26.5688 21.9517 26.7563 21.4517Z" fill="white"/>
</svg>
