<svg width="32" height="33" viewBox="0 0 32 33" fill="none" xmlns="http://www.w3.org/2000/svg">
<path d="M0.94812 30.779C0.984861 30.7494 1.02605 30.7236 1.05775 30.6895C3.87464 27.6483 6.69064 24.6066 9.50693 21.5648C10.5161 20.4747 11.5253 19.3849 12.5345 18.2952C12.5644 18.2629 12.5932 18.2291 12.6343 18.182C8.77094 13.0143 4.90723 7.84687 1.02101 2.64954C1.10753 2.64954 1.15908 2.64954 1.21093 2.64954C4.08501 2.64954 6.95879 2.65013 9.83286 2.64746C9.93686 2.64746 10.0038 2.67561 10.0672 2.76065C12.2326 5.65931 14.4 8.5562 16.5674 11.4534C16.9043 11.9038 17.2406 12.3544 17.594 12.827C17.6835 12.7307 17.7659 12.6421 17.848 12.5535C19.933 10.3008 22.018 8.04805 24.1031 5.79531C25.0417 4.78109 25.9798 3.76657 26.9217 2.75561C26.9695 2.70435 27.0509 2.65487 27.117 2.65428C27.9268 2.64746 28.7366 2.64983 29.5466 2.65042C29.5662 2.65042 29.5855 2.65457 29.6426 2.66109C26.0095 6.58613 22.3935 10.4931 18.7724 14.4048C22.8598 19.8697 26.9413 25.3263 31.0376 30.803C30.9674 30.8066 30.9253 30.8107 30.8832 30.8107C27.9943 30.811 25.1057 30.8107 22.2169 30.8125C22.1256 30.8125 22.0649 30.7912 22.0068 30.7132C20.2678 28.3832 18.5259 26.0558 16.7849 23.7275C15.8302 22.4507 14.8758 21.1734 13.9215 19.8964C13.8921 19.8569 13.861 19.8187 13.7875 19.7251C13.7564 19.7832 13.7401 19.8386 13.7049 19.8768C11.6512 22.0981 9.59582 24.3177 7.54101 26.5378C6.24708 27.9358 4.95345 29.3343 3.65686 30.7295C3.61627 30.7731 3.54101 30.8075 3.48175 30.8078C2.63731 30.8119 1.79316 30.8095 0.948713 30.8089C0.948713 30.7992 0.948713 30.7891 0.948713 30.7793L0.94812 30.779ZM27.1591 28.8718C27.1057 28.7968 27.0755 28.7526 27.0435 28.7097C24.8121 25.7254 22.581 22.7411 20.3493 19.7571C16.5982 14.7414 12.8468 9.72628 9.09775 4.70879C9.03108 4.61961 8.96442 4.58613 8.8536 4.58642C7.59464 4.59057 6.33538 4.58909 5.07642 4.58909H4.9016C4.96975 4.68242 5.01745 4.74879 5.06664 4.81457C6.59168 6.85428 8.11701 8.89368 9.64234 10.9331C14.082 16.8697 18.522 22.806 22.96 28.7441C23.0284 28.8359 23.0986 28.8753 23.216 28.875C24.4702 28.8706 25.7244 28.8724 26.9783 28.8724C27.0263 28.8724 27.0743 28.8724 27.1591 28.8724V28.8718Z" fill="white"/>
</svg>
