<svg width="35" height="25" viewBox="0 0 35 25" fill="none" xmlns="http://www.w3.org/2000/svg">
<path d="M33.4672 4.57666C34.2172 7.20166 34.2172 12.8267 34.2172 12.8267C34.2172 12.8267 34.2172 18.3892 33.4672 21.0767C33.0922 22.5767 31.9047 23.7017 30.4672 24.0767C27.7797 24.7642 17.1547 24.7642 17.1547 24.7642C17.1547 24.7642 6.46719 24.7642 3.77969 24.0767C2.34219 23.7017 1.15469 22.5767 0.779688 21.0767C0.0296879 18.3892 0.0296879 12.8267 0.0296879 12.8267C0.0296879 12.8267 0.0296879 7.20166 0.779688 4.57666C1.15469 3.07666 2.34219 1.88916 3.77969 1.51416C6.46719 0.76416 17.1547 0.76416 17.1547 0.76416C17.1547 0.76416 27.7797 0.76416 30.4672 1.51416C31.9047 1.88916 33.0922 3.07666 33.4672 4.57666ZM13.6547 17.8892L22.5297 12.8267L13.6547 7.76416V17.8892Z" fill="white"/>
</svg>
