<svg width="9" height="16" viewBox="0 0 9 16" fill="none" xmlns="http://www.w3.org/2000/svg">
<path d="M0.853743 15.0611C0.714353 14.9218 0.603778 14.7564 0.528336 14.5744C0.452894 14.3923 0.414063 14.1972 0.414063 14.0001C0.414063 13.8031 0.452893 13.6079 0.528336 13.4259C0.603778 13.2438 0.714353 13.0784 0.853743 12.9391L5.43874 8.35313C5.53248 8.25936 5.58514 8.13221 5.58514 7.99963C5.58514 7.86704 5.53248 7.73989 5.43874 7.64613L0.853742 3.06113C0.572348 2.77986 0.414209 2.39834 0.414115 2.00048C0.414021 1.60262 0.57198 1.22102 0.853242 0.939627C1.1345 0.658232 1.51603 0.500094 1.91389 0.5C2.31175 0.499906 2.69335 0.657865 2.97474 0.939127L7.56074 5.52513C7.88579 5.85014 8.14363 6.23599 8.31954 6.66065C8.49545 7.08531 8.586 7.54047 8.586 8.00013C8.586 8.45978 8.49545 8.91494 8.31954 9.3396C8.14363 9.76426 7.88579 10.1501 7.56074 10.4751L2.97474 15.0611C2.69345 15.3423 2.31199 15.5003 1.91424 15.5003C1.5165 15.5003 1.13503 15.3423 0.853743 15.0611Z" fill="white"/>
</svg>
