<svg width="9" height="16" viewBox="0 0 9 16" fill="none" xmlns="http://www.w3.org/2000/svg">
<path d="M8.14626 15.0611C8.28565 14.9218 8.39622 14.7564 8.47166 14.5744C8.54711 14.3923 8.58594 14.1972 8.58594 14.0001C8.58594 13.8031 8.54711 13.6079 8.47166 13.4259C8.39622 13.2438 8.28565 13.0784 8.14626 12.9391L3.56126 8.35313C3.46752 8.25936 3.41486 8.13221 3.41486 7.99963C3.41486 7.86704 3.46752 7.73989 3.56126 7.64613L8.14626 3.06113C8.42765 2.77986 8.58579 2.39834 8.58588 2.00048C8.58598 1.60262 8.42802 1.22102 8.14676 0.939627C7.8655 0.658232 7.48397 0.500094 7.08611 0.5C6.68825 0.499906 6.30665 0.657865 6.02526 0.939127L1.43926 5.52513C1.11421 5.85014 0.856375 6.23599 0.680461 6.66065C0.504547 7.08531 0.414005 7.54047 0.414005 8.00013C0.414005 8.45978 0.504547 8.91494 0.680461 9.3396C0.856375 9.76426 1.11421 10.1501 1.43926 10.4751L6.02526 15.0611C6.30655 15.3423 6.68801 15.5003 7.08576 15.5003C7.4835 15.5003 7.86497 15.3423 8.14626 15.0611Z" fill="white"/>
</svg>
