<svg width="123" height="67" viewBox="0 0 123 67" fill="none" xmlns="http://www.w3.org/2000/svg">
<path d="M43.562 23.144C42.602 23.144 41.684 23 40.808 22.712C39.932 22.412 39.242 22.028 38.738 21.56L39.404 20.156C39.884 20.576 40.496 20.924 41.24 21.2C41.984 21.476 42.758 21.614 43.562 21.614C44.294 21.614 44.888 21.53 45.344 21.362C45.8 21.194 46.136 20.966 46.352 20.678C46.568 20.378 46.676 20.042 46.676 19.67C46.676 19.238 46.532 18.89 46.244 18.626C45.968 18.362 45.602 18.152 45.146 17.996C44.702 17.828 44.21 17.684 43.67 17.564C43.13 17.444 42.584 17.306 42.032 17.15C41.492 16.982 40.994 16.772 40.538 16.52C40.094 16.268 39.734 15.932 39.458 15.512C39.182 15.08 39.044 14.528 39.044 13.856C39.044 13.208 39.212 12.614 39.548 12.074C39.896 11.522 40.424 11.084 41.132 10.76C41.852 10.424 42.764 10.256 43.868 10.256C44.6 10.256 45.326 10.352 46.046 10.544C46.766 10.736 47.39 11.012 47.918 11.372L47.324 12.812C46.784 12.452 46.214 12.194 45.614 12.038C45.014 11.87 44.432 11.786 43.868 11.786C43.16 11.786 42.578 11.876 42.122 12.056C41.666 12.236 41.33 12.476 41.114 12.776C40.91 13.076 40.808 13.412 40.808 13.784C40.808 14.228 40.946 14.582 41.222 14.846C41.51 15.11 41.876 15.32 42.32 15.476C42.776 15.632 43.274 15.776 43.814 15.908C44.354 16.028 44.894 16.166 45.434 16.322C45.986 16.478 46.484 16.682 46.928 16.934C47.384 17.186 47.75 17.522 48.026 17.942C48.302 18.362 48.44 18.902 48.44 19.562C48.44 20.198 48.266 20.792 47.918 21.344C47.57 21.884 47.03 22.322 46.298 22.658C45.578 22.982 44.666 23.144 43.562 23.144ZM56.7397 23V20.984L56.6497 20.606V17.168C56.6497 16.436 56.4337 15.872 56.0017 15.476C55.5817 15.068 54.9457 14.864 54.0937 14.864C53.5297 14.864 52.9777 14.96 52.4377 15.152C51.8977 15.332 51.4417 15.578 51.0697 15.89L50.3497 14.594C50.8417 14.198 51.4297 13.898 52.1137 13.694C52.8097 13.478 53.5357 13.37 54.2917 13.37C55.5997 13.37 56.6077 13.688 57.3157 14.324C58.0237 14.96 58.3777 15.932 58.3777 17.24V23H56.7397ZM53.6077 23.108C52.8997 23.108 52.2757 22.988 51.7357 22.748C51.2077 22.508 50.7997 22.178 50.5117 21.758C50.2237 21.326 50.0797 20.84 50.0797 20.3C50.0797 19.784 50.1997 19.316 50.4397 18.896C50.6917 18.476 51.0937 18.14 51.6457 17.888C52.2097 17.636 52.9657 17.51 53.9137 17.51H56.9377V18.752H53.9857C53.1217 18.752 52.5397 18.896 52.2397 19.184C51.9397 19.472 51.7897 19.82 51.7897 20.228C51.7897 20.696 51.9757 21.074 52.3477 21.362C52.7197 21.638 53.2357 21.776 53.8957 21.776C54.5437 21.776 55.1077 21.632 55.5877 21.344C56.0797 21.056 56.4337 20.636 56.6497 20.084L56.9917 21.272C56.7637 21.836 56.3617 22.286 55.7857 22.622C55.2097 22.946 54.4837 23.108 53.6077 23.108ZM63.9017 23L59.7257 13.46H61.5257L65.2337 22.1H64.3697L68.1497 13.46H69.8417L65.6657 23H63.9017ZM75.4387 23.108C74.4187 23.108 73.5187 22.898 72.7387 22.478C71.9707 22.058 71.3707 21.482 70.9387 20.75C70.5187 20.018 70.3087 19.178 70.3087 18.23C70.3087 17.282 70.5127 16.442 70.9207 15.71C71.3407 14.978 71.9107 14.408 72.6307 14C73.3627 13.58 74.1847 13.37 75.0967 13.37C76.0207 13.37 76.8367 13.574 77.5447 13.982C78.2527 14.39 78.8047 14.966 79.2007 15.71C79.6087 16.442 79.8127 17.3 79.8127 18.284C79.8127 18.356 79.8067 18.44 79.7947 18.536C79.7947 18.632 79.7887 18.722 79.7767 18.806H71.6587V17.564H78.8767L78.1747 17.996C78.1867 17.384 78.0607 16.838 77.7967 16.358C77.5327 15.878 77.1667 15.506 76.6987 15.242C76.2427 14.966 75.7087 14.828 75.0967 14.828C74.4967 14.828 73.9627 14.966 73.4947 15.242C73.0267 15.506 72.6607 15.884 72.3967 16.376C72.1327 16.856 72.0007 17.408 72.0007 18.032V18.32C72.0007 18.956 72.1447 19.526 72.4327 20.03C72.7327 20.522 73.1467 20.906 73.6747 21.182C74.2027 21.458 74.8087 21.596 75.4927 21.596C76.0567 21.596 76.5667 21.5 77.0227 21.308C77.4907 21.116 77.8987 20.828 78.2467 20.444L79.2007 21.56C78.7687 22.064 78.2287 22.448 77.5807 22.712C76.9447 22.976 76.2307 23.108 75.4387 23.108ZM90.1242 23.144C89.2362 23.144 88.3722 23.006 87.5322 22.73C86.7042 22.454 86.0262 22.082 85.4982 21.614L86.3262 20.192C86.7462 20.588 87.2922 20.912 87.9642 21.164C88.6362 21.416 89.3562 21.542 90.1242 21.542C91.0602 21.542 91.7862 21.344 92.3022 20.948C92.8302 20.54 93.0942 19.994 93.0942 19.31C93.0942 18.65 92.8422 18.122 92.3382 17.726C91.8462 17.318 91.0602 17.114 89.9802 17.114H88.9722V15.854L92.7162 11.246L92.9682 11.966H86.0742V10.4H94.3902V11.624L90.6642 16.214L89.7282 15.656H90.3222C91.8462 15.656 92.9862 15.998 93.7422 16.682C94.5102 17.366 94.8942 18.236 94.8942 19.292C94.8942 20 94.7202 20.648 94.3722 21.236C94.0242 21.824 93.4962 22.292 92.7882 22.64C92.0922 22.976 91.2042 23.144 90.1242 23.144ZM101.721 23.144C100.737 23.144 99.855 22.892 99.075 22.388C98.307 21.884 97.695 21.152 97.239 20.192C96.795 19.232 96.573 18.068 96.573 16.7C96.573 15.332 96.795 14.168 97.239 13.208C97.695 12.248 98.307 11.516 99.075 11.012C99.855 10.508 100.737 10.256 101.721 10.256C102.693 10.256 103.569 10.508 104.349 11.012C105.129 11.516 105.741 12.248 106.185 13.208C106.629 14.168 106.851 15.332 106.851 16.7C106.851 18.068 106.629 19.232 106.185 20.192C105.741 21.152 105.129 21.884 104.349 22.388C103.569 22.892 102.693 23.144 101.721 23.144ZM101.721 21.542C102.381 21.542 102.957 21.362 103.449 21.002C103.953 20.642 104.343 20.102 104.619 19.382C104.907 18.662 105.051 17.768 105.051 16.7C105.051 15.632 104.907 14.738 104.619 14.018C104.343 13.298 103.953 12.758 103.449 12.398C102.957 12.038 102.381 11.858 101.721 11.858C101.061 11.858 100.479 12.038 99.975 12.398C99.471 12.758 99.075 13.298 98.787 14.018C98.511 14.738 98.373 15.632 98.373 16.7C98.373 17.768 98.511 18.662 98.787 19.382C99.075 20.102 99.471 20.642 99.975 21.002C100.479 21.362 101.061 21.542 101.721 21.542ZM110.307 23L118.911 10.4H120.297L111.693 23H110.307ZM111.315 17.168C110.739 17.168 110.229 17.024 109.785 16.736C109.341 16.448 108.993 16.046 108.741 15.53C108.501 15.014 108.381 14.414 108.381 13.73C108.381 13.046 108.501 12.446 108.741 11.93C108.993 11.414 109.341 11.012 109.785 10.724C110.229 10.436 110.739 10.292 111.315 10.292C111.903 10.292 112.413 10.436 112.845 10.724C113.289 11.012 113.631 11.414 113.871 11.93C114.111 12.446 114.231 13.046 114.231 13.73C114.231 14.414 114.111 15.014 113.871 15.53C113.631 16.046 113.289 16.448 112.845 16.736C112.413 17.024 111.903 17.168 111.315 17.168ZM111.315 16.142C111.867 16.142 112.299 15.932 112.611 15.512C112.923 15.08 113.079 14.486 113.079 13.73C113.079 12.974 112.923 12.386 112.611 11.966C112.299 11.534 111.867 11.318 111.315 11.318C110.775 11.318 110.343 11.534 110.019 11.966C109.707 12.386 109.551 12.974 109.551 13.73C109.551 14.474 109.707 15.062 110.019 15.494C110.343 15.926 110.775 16.142 111.315 16.142ZM119.289 23.108C118.713 23.108 118.203 22.964 117.759 22.676C117.315 22.388 116.973 21.986 116.733 21.47C116.493 20.954 116.373 20.354 116.373 19.67C116.373 18.986 116.493 18.386 116.733 17.87C116.973 17.354 117.315 16.952 117.759 16.664C118.203 16.376 118.713 16.232 119.289 16.232C119.877 16.232 120.387 16.376 120.819 16.664C121.263 16.952 121.605 17.354 121.845 17.87C122.097 18.386 122.223 18.986 122.223 19.67C122.223 20.354 122.097 20.954 121.845 21.47C121.605 21.986 121.263 22.388 120.819 22.676C120.387 22.964 119.877 23.108 119.289 23.108ZM119.289 22.082C119.829 22.082 120.255 21.872 120.567 21.452C120.891 21.02 121.053 20.426 121.053 19.67C121.053 18.926 120.891 18.338 120.567 17.906C120.255 17.474 119.829 17.258 119.289 17.258C118.749 17.258 118.317 17.474 117.993 17.906C117.681 18.326 117.525 18.914 117.525 19.67C117.525 20.426 117.681 21.02 117.993 21.452C118.317 21.872 118.749 22.082 119.289 22.082Z" fill="white"/>
<g clip-path="url(#clip0_1268_6106)">
<path d="M52.7711 35.706C47.7981 41.293 40.8096 44.676 33.3426 45.111C25.8756 45.546 18.5415 42.9973 12.9534 38.0255L13.4506 46.4165C13.4532 46.7374 13.3324 47.047 13.113 47.2812C12.8937 47.5154 12.5927 47.6563 12.2724 47.6747C11.952 47.6932 11.6369 47.5877 11.3921 47.3801C11.1474 47.1726 10.9919 46.8789 10.9577 46.5598L10.2822 35.16C10.2724 34.9961 10.295 34.8318 10.3488 34.6765C10.4025 34.5213 10.4863 34.3782 10.5954 34.2554C10.7045 34.1325 10.8367 34.0324 10.9845 33.9607C11.1323 33.889 11.2928 33.8472 11.4568 33.8376L22.8565 33.1621C23.0205 33.1523 23.1848 33.175 23.34 33.2288C23.4952 33.2826 23.6382 33.3664 23.761 33.4754C23.8838 33.5845 23.984 33.7167 24.0557 33.8644C24.1274 34.0122 24.1693 34.1726 24.179 34.3366C24.1887 34.5005 24.1661 34.6648 24.1123 34.82C24.0585 34.9752 23.9747 35.1183 23.8657 35.2411C23.7566 35.3639 23.6244 35.464 23.4767 35.5357C23.3289 35.6074 23.1685 35.6494 23.0045 35.6591L14.6135 36.1563C19.7059 40.6878 26.3896 43.0111 33.1947 42.6154C39.9998 42.2196 46.3692 39.1371 50.9019 34.0459C51.122 33.798 51.4316 33.6477 51.7626 33.6281C52.0935 33.6085 52.4187 33.7212 52.6666 33.9413C52.9145 34.1614 53.0647 34.471 53.0843 34.802C53.1039 35.1329 52.9913 35.4581 52.7711 35.706Z" fill="white"/>
</g>
<defs>
<clipPath id="clip0_1268_6106">
<rect width="40" height="40" fill="white" transform="matrix(0.664043 -0.747695 -0.747695 -0.664043 30.6738 66.2344)"/>
</clipPath>
</defs>
</svg>
