<svg width="79" height="79" viewBox="0 0 79 79" fill="none" xmlns="http://www.w3.org/2000/svg">
<path d="M32.8193 18.3579L34.8017 23.8632C35.8894 26.8813 37.6296 29.6222 39.898 31.8907C42.1665 34.1592 44.9075 35.8993 47.9255 36.9871L53.4308 38.9695C53.5396 39.0093 53.6334 39.0816 53.6997 39.1765C53.766 39.2715 53.8015 39.3845 53.8015 39.5003C53.8015 39.616 53.766 39.729 53.6997 39.824C53.6334 39.9189 53.5396 39.9912 53.4308 40.031L47.9255 42.0134C44.9075 43.1012 42.1665 44.8413 39.898 47.1098C37.6296 49.3783 35.8894 52.1192 34.8017 55.1373L32.8193 60.6426C32.7794 60.7513 32.7071 60.8452 32.6122 60.9115C32.5173 60.9778 32.4043 61.0133 32.2885 61.0133C32.1727 61.0133 32.0597 60.9778 31.9648 60.9115C31.8698 60.8452 31.7976 60.7513 31.7577 60.6426L29.7753 55.1373C28.6875 52.1192 26.9474 49.3783 24.6789 47.1098C22.4104 44.8413 19.6695 43.1012 16.6514 42.0134L11.1461 40.031C11.0374 39.9912 10.9435 39.9189 10.8772 39.824C10.8109 39.729 10.7754 39.616 10.7754 39.5003C10.7754 39.3845 10.8109 39.2715 10.8772 39.1765C10.9435 39.0816 11.0374 39.0093 11.1461 38.9695L16.6514 36.9871C19.6695 35.8993 22.4104 34.1592 24.6789 31.8907C26.9474 29.6222 28.6875 26.8813 29.7753 23.8632L31.7577 18.3579C31.7964 18.2481 31.8683 18.153 31.9634 18.0857C32.0584 18.0185 32.172 17.9824 32.2885 17.9824C32.4049 17.9824 32.5185 18.0185 32.6136 18.0857C32.7086 18.153 32.7805 18.2481 32.8193 18.3579ZM57.6006 5.12785L58.6053 7.91507C59.1566 9.44316 60.038 10.8309 61.1867 11.9796C62.3354 13.1283 63.7231 14.0097 65.2512 14.5609L68.0384 15.5657C68.0937 15.5858 68.1414 15.6224 68.1751 15.6706C68.2088 15.7187 68.2268 15.7761 68.2268 15.8348C68.2268 15.8936 68.2088 15.9509 68.1751 15.9991C68.1414 16.0472 68.0937 16.0838 68.0384 16.1039L65.2512 17.1087C63.7231 17.66 62.3354 18.5413 61.1867 19.69C60.038 20.8387 59.1566 22.2265 58.6053 23.7546L57.6006 26.5418C57.5805 26.597 57.5439 26.6447 57.4957 26.6784C57.4476 26.7121 57.3902 26.7302 57.3315 26.7302C57.2727 26.7302 57.2154 26.7121 57.1672 26.6784C57.1191 26.6447 57.0825 26.597 57.0624 26.5418L56.0576 23.7546C55.5063 22.2265 54.625 20.8387 53.4763 19.69C52.3276 18.5413 50.9398 17.66 49.4117 17.1087L46.6245 16.1039C46.5693 16.0838 46.5216 16.0472 46.4879 15.9991C46.4542 15.9509 46.4361 15.8936 46.4361 15.8348C46.4361 15.7761 46.4542 15.7187 46.4879 15.6706C46.5216 15.6224 46.5693 15.5858 46.6245 15.5657L49.4117 14.5609C50.9398 14.0097 52.3276 13.1283 53.4763 11.9796C54.625 10.8309 55.5063 9.44316 56.0576 7.91507L57.0624 5.12785C57.0825 5.07263 57.1191 5.02494 57.1672 4.99123C57.2154 4.95753 57.2727 4.93945 57.3315 4.93945C57.3902 4.93945 57.4476 4.95753 57.4957 4.99123C57.5439 5.02494 57.5805 5.07263 57.6006 5.12785ZM57.6006 52.4612L58.6053 55.2484C59.1566 56.7765 60.038 58.1643 61.1867 59.313C62.3354 60.4616 63.7231 61.343 65.2512 61.8943L68.0384 62.8991C68.0937 62.9192 68.1414 62.9558 68.1751 63.0039C68.2088 63.0521 68.2268 63.1094 68.2268 63.1682C68.2268 63.2269 68.2088 63.2843 68.1751 63.3324C68.1414 63.3806 68.0937 63.4172 68.0384 63.4373L65.2512 64.442C63.7231 64.9933 62.3354 65.8747 61.1867 67.0234C60.038 68.1721 59.1566 69.5598 58.6053 71.0879L57.6006 73.8751C57.5805 73.9304 57.5439 73.9781 57.4957 74.0117C57.4476 74.0455 57.3902 74.0635 57.3315 74.0635C57.2727 74.0635 57.2154 74.0455 57.1672 74.0117C57.1191 73.9781 57.0825 73.9304 57.0624 73.8751L56.0576 71.0879C55.5063 69.5598 54.625 68.1721 53.4763 67.0234C52.3276 65.8747 50.9398 64.9933 49.4117 64.442L46.6245 63.4373C46.5693 63.4172 46.5216 63.3806 46.4879 63.3324C46.4542 63.2843 46.4361 63.2269 46.4361 63.1682C46.4361 63.1094 46.4542 63.0521 46.4879 63.0039C46.5216 62.9558 46.5693 62.9192 46.6245 62.8991L49.4117 61.8943C50.9398 61.343 52.3276 60.4616 53.4763 59.313C54.625 58.1643 55.5063 56.7765 56.0576 55.2484L57.0624 52.4612C57.1537 52.2094 57.5117 52.2094 57.6006 52.4612Z" fill="url(#paint0_linear_1188_2105)"/>
<defs>
<linearGradient id="paint0_linear_1188_2105" x1="7.72872" y1="18.484" x2="52.8464" y2="20.5518" gradientUnits="userSpaceOnUse">
<stop stop-color="#00C7B1"/>
<stop offset="1" stop-color="#03477B"/>
</linearGradient>
</defs>
</svg>
