<svg width="24" height="24" viewBox="0 0 24 24" fill="none" xmlns="http://www.w3.org/2000/svg">
<path d="M9.97031 5.57746L10.5726 7.24996C10.903 8.16684 11.4317 8.99954 12.1208 9.6887C12.81 10.3779 13.6427 10.9065 14.5596 11.237L16.2321 11.8392C16.2651 11.8513 16.2936 11.8733 16.3137 11.9021C16.3339 11.931 16.3447 11.9653 16.3447 12.0005C16.3447 12.0356 16.3339 12.07 16.3137 12.0988C16.2936 12.1276 16.2651 12.1496 16.2321 12.1617L14.5596 12.764C13.6427 13.0944 12.81 13.6231 12.1208 14.3122C11.4317 15.0014 10.903 15.8341 10.5726 16.751L9.97031 18.4235C9.9582 18.4565 9.93624 18.485 9.9074 18.5051C9.87856 18.5253 9.84423 18.5361 9.80906 18.5361C9.77388 18.5361 9.73955 18.5253 9.71071 18.5051C9.68188 18.485 9.65992 18.4565 9.64781 18.4235L9.04556 16.751C8.7151 15.8341 8.18645 15.0014 7.49729 14.3122C6.80814 13.6231 5.97544 13.0944 5.05856 12.764L3.38606 12.1617C3.35303 12.1496 3.32452 12.1276 3.30438 12.0988C3.28424 12.07 3.27344 12.0356 3.27344 12.0005C3.27344 11.9653 3.28424 11.931 3.30438 11.9021C3.32452 11.8733 3.35303 11.8513 3.38606 11.8392L5.05856 11.237C5.97544 10.9065 6.80814 10.3779 7.49729 9.6887C8.18645 8.99954 8.7151 8.16684 9.04556 7.24996L9.64781 5.57746C9.65958 5.5441 9.68141 5.51522 9.71029 5.49478C9.73917 5.47435 9.77368 5.46338 9.80906 5.46338C9.84443 5.46338 9.87894 5.47435 9.90782 5.49478C9.9367 5.51522 9.95853 5.5441 9.97031 5.57746ZM17.4988 1.55821L17.8041 2.40496C17.9715 2.86919 18.2393 3.29079 18.5883 3.63976C18.9372 3.98873 19.3588 4.25648 19.8231 4.42396L20.6698 4.72921C20.6866 4.73532 20.7011 4.74644 20.7113 4.76106C20.7216 4.77569 20.727 4.79311 20.727 4.81096C20.727 4.82881 20.7216 4.84623 20.7113 4.86086C20.7011 4.87548 20.6866 4.8866 20.6698 4.89271L19.8231 5.19796C19.3588 5.36544 18.9372 5.63319 18.5883 5.98216C18.2393 6.33113 17.9715 6.75273 17.8041 7.21696L17.4988 8.06371C17.4927 8.08049 17.4816 8.09498 17.467 8.10522C17.4523 8.11546 17.4349 8.12095 17.4171 8.12095C17.3992 8.12095 17.3818 8.11546 17.3672 8.10522C17.3525 8.09498 17.3414 8.08049 17.3353 8.06371L17.0301 7.21696C16.8626 6.75273 16.5948 6.33113 16.2459 5.98216C15.8969 5.63319 15.4753 5.36544 15.0111 5.19796L14.1643 4.89271C14.1475 4.8866 14.133 4.87548 14.1228 4.86086C14.1126 4.84623 14.1071 4.82881 14.1071 4.81096C14.1071 4.79311 14.1126 4.77569 14.1228 4.76106C14.133 4.74644 14.1475 4.73532 14.1643 4.72921L15.0111 4.42396C15.4753 4.25648 15.8969 3.98873 16.2459 3.63976C16.5948 3.29079 16.8626 2.86919 17.0301 2.40496L17.3353 1.55821C17.3414 1.54144 17.3525 1.52695 17.3672 1.51671C17.3818 1.50647 17.3992 1.50098 17.4171 1.50098C17.4349 1.50098 17.4523 1.50647 17.467 1.51671C17.4816 1.52695 17.4927 1.54144 17.4988 1.55821ZM17.4988 15.938L17.8041 16.7847C17.9715 17.2489 18.2393 17.6705 18.5883 18.0195C18.9372 18.3685 19.3588 18.6362 19.8231 18.8037L20.6698 19.109C20.6866 19.1151 20.7011 19.1262 20.7113 19.1408C20.7216 19.1554 20.727 19.1729 20.727 19.1907C20.727 19.2086 20.7216 19.226 20.7113 19.2406C20.7011 19.2552 20.6866 19.2664 20.6698 19.2725L19.8231 19.5777C19.3588 19.7452 18.9372 20.0129 18.5883 20.3619C18.2393 20.7109 17.9715 21.1325 17.8041 21.5967L17.4988 22.4435C17.4927 22.4602 17.4816 22.4747 17.467 22.485C17.4523 22.4952 17.4349 22.5007 17.4171 22.5007C17.3992 22.5007 17.3818 22.4952 17.3672 22.485C17.3525 22.4747 17.3414 22.4602 17.3353 22.4435L17.0301 21.5967C16.8626 21.1325 16.5948 20.7109 16.2459 20.3619C15.8969 20.0129 15.4753 19.7452 15.0111 19.5777L14.1643 19.2725C14.1475 19.2664 14.133 19.2552 14.1228 19.2406C14.1126 19.226 14.1071 19.2086 14.1071 19.1907C14.1071 19.1729 14.1126 19.1554 14.1228 19.1408C14.133 19.1262 14.1475 19.1151 14.1643 19.109L15.0111 18.8037C15.4753 18.6362 15.8969 18.3685 16.2459 18.0195C16.5948 17.6705 16.8626 17.2489 17.0301 16.7847L17.3353 15.938C17.3631 15.8615 17.4718 15.8615 17.4988 15.938Z" fill="white"/>
</svg>
